<svg width="158" height="30" viewBox="0 0 158 30" fill="none" xmlns="http://www.w3.org/2000/svg">
<path d="M9.2 23.864C8.24 23.864 7.41333 23.6773 6.72 23.304C6.02667 22.9307 5.488 22.3973 5.104 21.704C4.72 21.0107 4.528 20.184 4.528 19.224V13.8C4.528 12.84 4.70933 12.0133 5.072 11.32C5.43467 10.6267 5.952 10.0933 6.624 9.72C7.296 9.34667 8.10133 9.16 9.04 9.16C9.89333 9.16 10.624 9.32533 11.232 9.656C11.8507 9.976 12.3253 10.4293 12.656 11.016C12.9867 11.592 13.152 12.264 13.152 13.032V19.96H11.632L11.728 19.08H11.248L11.488 18.664C11.488 19.0907 11.328 19.4427 11.008 19.72C10.6987 19.9867 10.2827 20.12 9.76 20.12C9.088 20.12 8.56533 19.896 8.192 19.448C7.82933 19 7.648 18.3653 7.648 17.544V15.72C7.648 14.8987 7.82933 14.264 8.192 13.816C8.56533 13.368 9.088 13.144 9.76 13.144C10.2827 13.144 10.6987 13.2773 11.008 13.544C11.328 13.8107 11.488 14.1627 11.488 14.6L11.264 14.28H11.744L11.488 13.192V13.032C11.488 12.552 11.392 12.1307 11.2 11.768C11.008 11.4053 10.7307 11.1227 10.368 10.92C10.0053 10.7067 9.56267 10.6 9.04 10.6C8.13333 10.6 7.42933 10.8827 6.928 11.448C6.43733 12.0027 6.192 12.7867 6.192 13.8V19.224C6.192 20.216 6.45333 20.984 6.976 21.528C7.50933 22.072 8.25067 22.344 9.2 22.344H10.32V23.864H9.2ZM10.4 18.904C10.784 18.904 11.0613 18.792 11.232 18.568C11.4027 18.344 11.488 17.9813 11.488 17.48V15.72C11.488 15.272 11.3973 14.936 11.216 14.712C11.0347 14.4773 10.7627 14.36 10.4 14.36C10.0373 14.36 9.76533 14.4773 9.584 14.712C9.40267 14.936 9.312 15.272 9.312 15.72V17.544C9.312 18.024 9.40267 18.3707 9.584 18.584C9.76533 18.7973 10.0373 18.904 10.4 18.904ZM52.8008 21V12.2H54.4328V13.384H54.7688L54.4968 13.672C54.4968 13.1813 54.6354 12.7867 54.9128 12.488C55.1901 12.1893 55.5474 12.04 55.9848 12.04C56.4541 12.04 56.8168 12.232 57.0728 12.616C57.3394 13 57.4728 13.5173 57.4728 14.168L57.1208 13.384H57.6648L57.4568 13.672C57.4568 13.1813 57.5954 12.7867 57.8728 12.488C58.1501 12.1893 58.5181 12.04 58.9768 12.04C59.5208 12.04 59.9528 12.2427 60.2728 12.648C60.5928 13.0533 60.7528 13.6027 60.7528 14.296V21H58.9928V14.376C58.9928 14.088 58.9288 13.864 58.8008 13.704C58.6728 13.5333 58.4861 13.448 58.2408 13.448C58.0061 13.448 57.8194 13.528 57.6808 13.688C57.5528 13.848 57.4888 14.0773 57.4888 14.376V21H56.0488V14.376C56.0488 14.0773 55.9848 13.848 55.8568 13.688C55.7288 13.528 55.5421 13.448 55.2968 13.448C55.0514 13.448 54.8648 13.528 54.7368 13.688C54.6194 13.848 54.5608 14.0773 54.5608 14.376V21H52.8008ZM67.7065 21C67.1305 21 66.6238 20.8827 66.1865 20.648C65.7598 20.4133 65.4238 20.0827 65.1785 19.656C64.9332 19.2187 64.8105 18.7173 64.8105 18.152V11.128H61.9945V9.32H66.8105V18.152C66.8105 18.472 66.9012 18.728 67.0825 18.92C67.2745 19.1013 67.5305 19.192 67.8505 19.192H70.5065V21H67.7065ZM72.4363 21V9.32H74.4363V15.656H75.8283L77.9723 12.2H80.2123L77.5563 16.456L80.2603 21H77.9723L75.8283 17.352H74.4363V21H72.4363ZM86.302 21.16C85.5767 21.16 85.0007 20.9573 84.574 20.552C84.1473 20.136 83.934 19.5707 83.934 18.856L84.382 19.32H83.934V21H81.982V9.32H83.982V11.784L83.918 13.88H84.382L83.934 14.344C83.934 13.6293 84.1473 13.0693 84.574 12.664C85.0007 12.248 85.5767 12.04 86.302 12.04C87.1873 12.04 87.8967 12.344 88.43 12.952C88.9633 13.56 89.23 14.3813 89.23 15.416V17.8C89.23 18.824 88.9633 19.64 88.43 20.248C87.8967 20.856 87.1873 21.16 86.302 21.16ZM85.598 19.432C86.11 19.432 86.51 19.2827 86.798 18.984C87.086 18.6853 87.23 18.2587 87.23 17.704V15.496C87.23 14.9413 87.086 14.5147 86.798 14.216C86.51 13.9173 86.11 13.768 85.598 13.768C85.0967 13.768 84.702 13.9227 84.414 14.232C84.126 14.5307 83.982 14.952 83.982 15.496V17.704C83.982 18.248 84.126 18.6747 84.414 18.984C84.702 19.2827 85.0967 19.432 85.598 19.432ZM91.8478 21V12.2H93.7358V13.88H94.2318L93.6398 14.904C93.6398 13.9547 93.8531 13.24 94.2798 12.76C94.7064 12.28 95.3358 12.04 96.1678 12.04C97.1171 12.04 97.8638 12.3333 98.4078 12.92C98.9518 13.5067 99.2238 14.3173 99.2238 15.352V15.992H97.1278V15.496C97.1278 14.9307 96.9784 14.4933 96.6798 14.184C96.3918 13.8747 95.9918 13.72 95.4798 13.72C94.9571 13.72 94.5518 13.8747 94.2638 14.184C93.9864 14.4933 93.8478 14.9307 93.8478 15.496V21H91.8478ZM139.266 23.208V21.4H156.546V23.208H139.266Z" fill="black"/>
</svg>
